<svg width="1068" height="1068" viewBox="0 0 1068 1068" fill="none" xmlns="http://www.w3.org/2000/svg">
<path d="M872.2 934.5L591.85 654.15C569.6 671.95 544.012 686.042 515.087 696.425C486.162 706.808 455.383 712 422.75 712C341.908 712 273.497 683.995 217.516 627.984C161.535 571.973 133.53 503.562 133.5 422.75C133.5 341.908 161.505 273.497 217.516 217.516C273.527 161.535 341.938 133.53 422.75 133.5C503.592 133.5 572.018 161.505 628.028 217.516C684.039 273.527 712.03 341.938 712 422.75C712 455.383 706.808 486.162 696.425 515.087C686.042 544.012 671.95 569.6 654.15 591.85L934.5 872.2L872.2 934.5ZM422.75 623C478.375 623 525.664 603.539 564.616 564.616C603.568 525.693 623.03 478.405 623 422.75C623 367.125 603.539 319.851 564.616 280.929C525.693 242.006 478.405 222.53 422.75 222.5C367.125 222.5 319.851 241.976 280.929 280.929C242.006 319.881 222.53 367.155 222.5 422.75C222.5 478.375 241.976 525.664 280.929 564.616C319.881 603.568 367.155 623.03 422.75 623Z" fill="black"/>
</svg>
